# Blender 4.4.3
# www.blender.org
mtllib Untitled.mtl
o Cube
v 1.030720 1.286694 6.085451
v 2.557042 -2.557042 6.743030
v 2.307679 2.557042 -6.085451
v 2.557042 -2.557042 -6.743030
v -1.030720 1.286694 6.085451
v -2.557042 -2.557042 6.743030
v -2.307679 2.557042 -6.085451
v -2.557042 -2.557042 -6.743030
v 2.557042 2.557042 -6.743030
v -2.557042 2.557042 -6.743030
v 2.557042 2.557042 6.743030
v -2.557042 2.557042 6.743030
v 1.030720 -0.764072 6.085451
v 2.307679 -2.034420 -6.085451
v -1.030720 -0.764072 6.085451
v -2.307679 -2.034420 -6.085451
vn 0.9945 -0.0000 -0.1043
vn -0.0000 -0.0000 -1.0000
vn -1.0000 -0.0000 -0.0000
vn -0.0000 -1.0000 -0.0000
vn 1.0000 -0.0000 -0.0000
vn -0.0000 -0.0000 1.0000
vn -0.0000 1.0000 -0.0000
vn -0.5818 0.8132 0.0113
vn 0.5818 0.8132 0.0113
vn -0.0000 0.4597 -0.8881
vn -0.0000 0.9946 -0.1038
vn -0.9945 -0.0000 -0.1043
vt 0.862810 0.512190
vt 0.862810 0.737810
vt 0.375000 0.750000
vt 0.625000 0.750000
vt 0.625000 1.000000
vt 0.375000 1.000000
vt 0.375000 0.000000
vt 0.625000 0.000000
vt 0.625000 0.250000
vt 0.375000 0.250000
vt 0.125000 0.500000
vt 0.375000 0.500000
vt 0.125000 0.750000
vt 0.625000 0.500000
vt 0.637190 0.737810
vt 0.875000 0.750000
vt 0.637190 0.512190
vt 0.875000 0.500000
s 0
usemtl Material
f 5/1/1 15/1/1 16/2/1 7/2/1
f 4/3/2 8/6/2 10/5/2 9/4/2
f 8/7/3 6/10/3 12/9/3 10/8/3
f 6/11/4 8/13/4 4/3/4 2/12/4
f 2/12/5 4/3/5 9/4/5 11/14/5
f 6/10/6 2/12/6 11/14/6 12/9/6
f 3/15/7 9/4/7 10/16/7 7/2/7
f 1/17/8 11/14/8 9/4/8 3/15/8
f 7/2/9 10/16/9 12/18/9 5/1/9
f 5/1/10 12/18/10 11/14/10 1/17/10
f 13/17/11 14/15/11 16/2/11 15/1/11
f 7/2/6 16/2/6 14/15/6 3/15/6
f 1/17/2 13/17/2 15/1/2 5/1/2
f 3/15/12 14/15/12 13/17/12 1/17/12
